<?xml version="1.0" encoding="iso-8859-1"?>
<!-- Generator: Adobe Illustrator 24.0.3, SVG Export Plug-In . SVG Version: 6.00 Build 0)  -->
<svg version="1.1" xmlns="http://www.w3.org/2000/svg" xmlns:xlink="http://www.w3.org/1999/xlink" x="0px" y="0px"
	 viewBox="0 0 64 64" style="enable-background:new 0 0 64 64;" xml:space="preserve">
<g id="achievement-badge-17">
	<path style="fill:#231F20;" d="M41.05,24.125c-0.109-0.32-0.406-0.539-0.741-0.539h-5.768l-1.78-5.479
		c-0.101-0.32-0.406-0.539-0.741-0.539c-0.336,0-0.64,0.219-0.741,0.539l-1.78,5.479h-5.768c-0.336,0-0.64,0.219-0.741,0.539
		c-0.101,0.32,0.008,0.679,0.281,0.874l4.667,3.387l-1.78,5.479c-0.109,0.32,0.008,0.679,0.281,0.874
		c0.273,0.203,0.64,0.203,0.913,0l4.667-3.387l4.66,3.387c0.14,0.101,0.297,0.148,0.46,0.148c0.164,0,0.32-0.047,0.461-0.148
		c0.273-0.195,0.39-0.554,0.281-0.874l-1.78-5.479l4.66-3.387C41.034,24.804,41.151,24.445,41.05,24.125z M34.728,27.458
		c-0.273,0.195-0.39,0.554-0.289,0.874l1.218,3.731L32.48,29.76c-0.14-0.101-0.304-0.156-0.461-0.156
		c-0.164,0-0.32,0.055-0.46,0.156l-3.177,2.302l1.21-3.731c0.109-0.32-0.008-0.679-0.281-0.874l-3.177-2.31h3.926
		c0.343,0,0.64-0.219,0.741-0.539l1.218-3.739l1.21,3.739c0.109,0.32,0.406,0.539,0.741,0.539h3.934L34.728,27.458z M63.747,40.265
		L50.369,28.152l-1.046,1.155l12.379,11.216l-8.39,2.771c-0.304,0.101-0.523,0.382-0.539,0.702l-0.32,6.291l-9.905-8.976
		l-1.046,1.163l11.122,10.068c0.14,0.133,0.328,0.203,0.523,0.203c0.101,0,0.203-0.016,0.297-0.055
		c0.281-0.117,0.468-0.382,0.484-0.687l0.375-7.391l9.163-3.028c0.265-0.086,0.46-0.304,0.515-0.578
		C64.043,40.734,63.95,40.453,63.747,40.265z M21.452,41.311l-9.905,8.976l-0.32-6.291c-0.016-0.32-0.234-0.601-0.539-0.702
		l-8.39-2.771l12.379-11.216l-1.046-1.155L0.253,40.265c-0.203,0.187-0.297,0.468-0.234,0.741c0.055,0.273,0.25,0.492,0.515,0.578
		l9.155,3.028l0.382,7.391c0.016,0.304,0.203,0.57,0.484,0.687c0.094,0.039,0.195,0.055,0.297,0.055c0.195,0,0.382-0.07,0.523-0.203
		l11.122-10.068L21.452,41.311z M41.05,24.125c-0.109-0.32-0.406-0.539-0.741-0.539h-5.768l-1.78-5.479
		c-0.101-0.32-0.406-0.539-0.741-0.539c-0.336,0-0.64,0.219-0.741,0.539l-1.78,5.479h-5.768c-0.336,0-0.64,0.219-0.741,0.539
		c-0.101,0.32,0.008,0.679,0.281,0.874l4.667,3.387l-1.78,5.479c-0.109,0.32,0.008,0.679,0.281,0.874
		c0.273,0.203,0.64,0.203,0.913,0l4.667-3.387l4.66,3.387c0.14,0.101,0.297,0.148,0.46,0.148c0.164,0,0.32-0.047,0.461-0.148
		c0.273-0.195,0.39-0.554,0.281-0.874l-1.78-5.479l4.66-3.387C41.034,24.804,41.151,24.445,41.05,24.125z M34.728,27.458
		c-0.273,0.195-0.39,0.554-0.289,0.874l1.218,3.731L32.48,29.76c-0.14-0.101-0.304-0.156-0.461-0.156
		c-0.164,0-0.32,0.055-0.46,0.156l-3.177,2.302l1.21-3.731c0.109-0.32-0.008-0.679-0.281-0.874l-3.177-2.31h3.926
		c0.343,0,0.64-0.219,0.741-0.539l1.218-3.739l1.21,3.739c0.109,0.32,0.406,0.539,0.741,0.539h3.934L34.728,27.458z M46.412,26.458
		l-7.009-12.145c-0.07-0.125-0.203-0.195-0.336-0.195H25.042c-0.14,0-0.273,0.07-0.343,0.195L17.69,26.458
		c-0.07,0.117-0.07,0.265,0,0.39l7.009,12.145c0.07,0.125,0.203,0.195,0.343,0.195h14.026c0.133,0,0.265-0.07,0.336-0.195
		l7.009-12.145C46.482,26.724,46.482,26.576,46.412,26.458z M38.841,38.408H25.268l-6.79-11.754l6.79-11.754h13.573l6.783,11.754
		L38.841,38.408z M32.761,18.107c-0.101-0.32-0.406-0.539-0.741-0.539c-0.336,0-0.64,0.219-0.741,0.539l-1.78,5.479h-5.768
		c-0.336,0-0.64,0.219-0.741,0.539c-0.101,0.32,0.008,0.679,0.281,0.874l4.667,3.387l-1.78,5.479
		c-0.109,0.32,0.008,0.679,0.281,0.874c0.273,0.203,0.64,0.203,0.913,0l4.667-3.387l4.66,3.387c0.14,0.101,0.297,0.148,0.46,0.148
		c0.164,0,0.32-0.047,0.461-0.148c0.273-0.195,0.39-0.554,0.281-0.874l-1.78-5.479l4.66-3.387c0.273-0.195,0.39-0.554,0.289-0.874
		c-0.109-0.32-0.406-0.539-0.741-0.539h-5.768L32.761,18.107z M34.728,27.458c-0.273,0.195-0.39,0.554-0.289,0.874l1.218,3.731
		L32.48,29.76c-0.14-0.101-0.304-0.156-0.461-0.156c-0.164,0-0.32,0.055-0.46,0.156l-3.177,2.302l1.21-3.731
		c0.109-0.32-0.008-0.679-0.281-0.874l-3.177-2.31h3.926c0.343,0,0.64-0.219,0.741-0.539l1.218-3.739l1.21,3.739
		c0.109,0.32,0.406,0.539,0.741,0.539h3.934L34.728,27.458z M46.412,26.458l-7.009-12.145c-0.07-0.125-0.203-0.195-0.336-0.195
		H25.042c-0.14,0-0.273,0.07-0.343,0.195L17.69,26.458c-0.07,0.117-0.07,0.265,0,0.39l7.009,12.145
		c0.07,0.125,0.203,0.195,0.343,0.195h14.026c0.133,0,0.265-0.07,0.336-0.195l7.009-12.145
		C46.482,26.724,46.482,26.576,46.412,26.458z M38.841,38.408H25.268l-6.79-11.754l6.79-11.754h13.573l6.783,11.754L38.841,38.408z
		 M32.761,18.107c-0.101-0.32-0.406-0.539-0.741-0.539c-0.336,0-0.64,0.219-0.741,0.539l-1.78,5.479h-5.768
		c-0.336,0-0.64,0.219-0.741,0.539c-0.101,0.32,0.008,0.679,0.281,0.874l4.667,3.387l-1.78,5.479
		c-0.109,0.32,0.008,0.679,0.281,0.874c0.273,0.203,0.64,0.203,0.913,0l4.667-3.387l4.66,3.387c0.14,0.101,0.297,0.148,0.46,0.148
		c0.164,0,0.32-0.047,0.461-0.148c0.273-0.195,0.39-0.554,0.281-0.874l-1.78-5.479l4.66-3.387c0.273-0.195,0.39-0.554,0.289-0.874
		c-0.109-0.32-0.406-0.539-0.741-0.539h-5.768L32.761,18.107z M34.728,27.458c-0.273,0.195-0.39,0.554-0.289,0.874l1.218,3.731
		L32.48,29.76c-0.14-0.101-0.304-0.156-0.461-0.156c-0.164,0-0.32,0.055-0.46,0.156l-3.177,2.302l1.21-3.731
		c0.109-0.32-0.008-0.679-0.281-0.874l-3.177-2.31h3.926c0.343,0,0.64-0.219,0.741-0.539l1.218-3.739l1.21,3.739
		c0.109,0.32,0.406,0.539,0.741,0.539h3.934L34.728,27.458z M49.151,25.475L41.62,12.433c-0.414-0.726-1.202-1.179-2.037-1.179
		H24.519c-0.835,0-1.616,0.453-2.037,1.179L14.95,25.475c-0.421,0.726-0.421,1.631,0,2.357l7.532,13.042
		c0.421,0.726,1.202,1.179,2.037,1.179h15.064c0.835,0,1.623-0.453,2.037-1.179l7.532-13.042
		C49.573,27.106,49.573,26.201,49.151,25.475z M47.801,27.052l-7.532,13.042c-0.14,0.242-0.406,0.398-0.687,0.398H24.519
		c-0.281,0-0.546-0.156-0.687-0.398L16.3,27.052c-0.141-0.25-0.141-0.554,0.008-0.796l7.524-13.042
		c0.14-0.242,0.406-0.398,0.687-0.398h15.064c0.281,0,0.546,0.156,0.687,0.398l7.532,13.042
		C47.942,26.498,47.942,26.802,47.801,27.052z M39.403,14.314c-0.07-0.125-0.203-0.195-0.336-0.195H25.042
		c-0.14,0-0.273,0.07-0.343,0.195L17.69,26.458c-0.07,0.117-0.07,0.265,0,0.39l7.009,12.145c0.07,0.125,0.203,0.195,0.343,0.195
		h14.026c0.133,0,0.265-0.07,0.336-0.195l7.009-12.145c0.07-0.125,0.07-0.273,0-0.39L39.403,14.314z M38.841,38.408H25.268
		l-6.79-11.754l6.79-11.754h13.573l6.783,11.754L38.841,38.408z M32.761,18.107c-0.101-0.32-0.406-0.539-0.741-0.539
		c-0.336,0-0.64,0.219-0.741,0.539l-1.78,5.479h-5.768c-0.336,0-0.64,0.219-0.741,0.539c-0.101,0.32,0.008,0.679,0.281,0.874
		l4.667,3.387l-1.78,5.479c-0.109,0.32,0.008,0.679,0.281,0.874c0.273,0.203,0.64,0.203,0.913,0l4.667-3.387l4.66,3.387
		c0.14,0.101,0.297,0.148,0.46,0.148c0.164,0,0.32-0.047,0.461-0.148c0.273-0.195,0.39-0.554,0.281-0.874l-1.78-5.479l4.66-3.387
		c0.273-0.195,0.39-0.554,0.289-0.874c-0.109-0.32-0.406-0.539-0.741-0.539h-5.768L32.761,18.107z M34.728,27.458
		c-0.273,0.195-0.39,0.554-0.289,0.874l1.218,3.731L32.48,29.76c-0.14-0.101-0.304-0.156-0.461-0.156
		c-0.164,0-0.32,0.055-0.46,0.156l-3.177,2.302l1.21-3.731c0.109-0.32-0.008-0.679-0.281-0.874l-3.177-2.31h3.926
		c0.343,0,0.64-0.219,0.741-0.539l1.218-3.739l1.21,3.739c0.109,0.32,0.406,0.539,0.741,0.539h3.934L34.728,27.458z"/>
	<path style="fill:#EF6825;" d="M38.841,14.899H25.268l-6.79,11.754l6.79,11.754h13.573l6.783-11.754L38.841,14.899z M40.761,24.999
		l-4.66,3.387l1.78,5.479c0.109,0.32-0.008,0.679-0.281,0.874c-0.14,0.101-0.297,0.148-0.461,0.148c-0.164,0-0.32-0.047-0.46-0.148
		l-4.66-3.387l-4.667,3.387c-0.273,0.203-0.64,0.203-0.913,0c-0.273-0.195-0.39-0.554-0.281-0.874l1.78-5.479l-4.667-3.387
		c-0.273-0.195-0.382-0.554-0.281-0.874c0.101-0.32,0.406-0.539,0.741-0.539h5.768l1.78-5.479c0.101-0.32,0.406-0.539,0.741-0.539
		c0.336,0,0.64,0.219,0.741,0.539l1.78,5.479h5.768c0.336,0,0.632,0.219,0.741,0.539C41.151,24.445,41.034,24.804,40.761,24.999z"/>
</g>
<g id="Layer_1">
</g>
</svg>
