<?xml version="1.0" encoding="iso-8859-1"?>
<!-- Generator: Adobe Illustrator 24.0.3, SVG Export Plug-In . SVG Version: 6.00 Build 0)  -->
<svg version="1.1" xmlns="http://www.w3.org/2000/svg" xmlns:xlink="http://www.w3.org/1999/xlink" x="0px" y="0px"
	 viewBox="0 0 64 64" style="enable-background:new 0 0 64 64;" xml:space="preserve">
<g id="achievement-badge-02">
	<path style="fill:#231F20;" d="M30.217,24.655l-3.336-3.651l-1.26,1.149l4.17,4.562c0.162,0.179,0.391,0.281,0.63,0.281
		c0.043,0,0.085-0.009,0.136-0.009c0.281-0.051,0.519-0.23,0.638-0.494c0.034-0.077,3.651-7.932,8.579-7.932
		c0.026,0,0.051,0,0.077,0.008l0.034-1.702C35.059,16.8,31.536,22.23,30.217,24.655z M30.217,24.655l-3.336-3.651l-1.26,1.149
		l4.17,4.562c0.162,0.179,0.391,0.281,0.63,0.281c0.043,0,0.085-0.009,0.136-0.009c0.281-0.051,0.519-0.23,0.638-0.494
		c0.034-0.077,3.651-7.932,8.579-7.932c0.026,0,0.051,0,0.077,0.008l0.034-1.702C35.059,16.8,31.536,22.23,30.217,24.655z
		 M30.217,24.655l-3.336-3.651l-1.26,1.149l4.17,4.562c0.162,0.179,0.391,0.281,0.63,0.281c0.043,0,0.085-0.009,0.136-0.009
		c0.281-0.051,0.519-0.23,0.638-0.494c0.034-0.077,3.651-7.932,8.579-7.932c0.026,0,0.051,0,0.077,0.008l0.034-1.702
		C35.059,16.8,31.536,22.23,30.217,24.655z M32.183,7.702c-7.983,0-14.468,6.485-14.468,14.468c0,7.974,6.485,14.468,14.468,14.468
		c7.974,0,14.468-6.494,14.468-14.468C46.651,14.187,40.157,7.702,32.183,7.702z M32.183,34.936
		c-7.038,0-12.766-5.728-12.766-12.766c0-7.038,5.728-12.766,12.766-12.766c7.038,0,12.766,5.728,12.766,12.766
		C44.949,29.208,39.221,34.936,32.183,34.936z M30.217,24.655l-3.336-3.651l-1.26,1.149l4.17,4.562
		c0.162,0.179,0.391,0.281,0.63,0.281c0.043,0,0.085-0.009,0.136-0.009c0.281-0.051,0.519-0.23,0.638-0.494
		c0.034-0.077,3.651-7.932,8.579-7.932c0.026,0,0.051,0,0.077,0.008l0.034-1.702C35.059,16.8,31.536,22.23,30.217,24.655z
		 M30.217,24.655l-3.336-3.651l-1.26,1.149l4.17,4.562c0.162,0.179,0.391,0.281,0.63,0.281c0.043,0,0.085-0.009,0.136-0.009
		c0.281-0.051,0.519-0.23,0.638-0.494c0.034-0.077,3.651-7.932,8.579-7.932c0.026,0,0.051,0,0.077,0.008l0.034-1.702
		C35.059,16.8,31.536,22.23,30.217,24.655z M30.217,24.655l-3.336-3.651l-1.26,1.149l4.17,4.562c0.162,0.179,0.391,0.281,0.63,0.281
		c0.043,0,0.085-0.009,0.136-0.009c0.281-0.051,0.519-0.23,0.638-0.494c0.034-0.077,3.651-7.932,8.579-7.932
		c0.026,0,0.051,0,0.077,0.008l0.034-1.702C35.059,16.8,31.536,22.23,30.217,24.655z M30.217,24.655l-3.336-3.651l-1.26,1.149
		l4.17,4.562c0.162,0.179,0.391,0.281,0.63,0.281c0.043,0,0.085-0.009,0.136-0.009c0.281-0.051,0.519-0.23,0.638-0.494
		c0.034-0.077,3.651-7.932,8.579-7.932c0.026,0,0.051,0,0.077,0.008l0.034-1.702C35.059,16.8,31.536,22.23,30.217,24.655z
		 M30.217,24.655l-3.336-3.651l-1.26,1.149l4.17,4.562c0.162,0.179,0.391,0.281,0.63,0.281c0.043,0,0.085-0.009,0.136-0.009
		c0.281-0.051,0.519-0.23,0.638-0.494c0.034-0.077,3.651-7.932,8.579-7.932c0.026,0,0.051,0,0.077,0.008l0.034-1.702
		C35.059,16.8,31.536,22.23,30.217,24.655z M32.183,7.702c-7.983,0-14.468,6.485-14.468,14.468c0,7.974,6.485,14.468,14.468,14.468
		c7.974,0,14.468-6.494,14.468-14.468C46.651,14.187,40.157,7.702,32.183,7.702z M32.183,34.936
		c-7.038,0-12.766-5.728-12.766-12.766c0-7.038,5.728-12.766,12.766-12.766c7.038,0,12.766,5.728,12.766,12.766
		C44.949,29.208,39.221,34.936,32.183,34.936z M30.217,24.655l-3.336-3.651l-1.26,1.149l4.17,4.562
		c0.162,0.179,0.391,0.281,0.63,0.281c0.043,0,0.085-0.009,0.136-0.009c0.281-0.051,0.519-0.23,0.638-0.494
		c0.034-0.077,3.651-7.932,8.579-7.932c0.026,0,0.051,0,0.077,0.008l0.034-1.702C35.059,16.8,31.536,22.23,30.217,24.655z
		 M32.183,7.702c-7.983,0-14.468,6.485-14.468,14.468c0,7.974,6.485,14.468,14.468,14.468c7.974,0,14.468-6.494,14.468-14.468
		C46.651,14.187,40.157,7.702,32.183,7.702z M32.183,34.936c-7.038,0-12.766-5.728-12.766-12.766
		c0-7.038,5.728-12.766,12.766-12.766c7.038,0,12.766,5.728,12.766,12.766C44.949,29.208,39.221,34.936,32.183,34.936z
		 M30.217,24.655l-3.336-3.651l-1.26,1.149l4.17,4.562c0.162,0.179,0.391,0.281,0.63,0.281c0.043,0,0.085-0.009,0.136-0.009
		c0.281-0.051,0.519-0.23,0.638-0.494c0.034-0.077,3.651-7.932,8.579-7.932c0.026,0,0.051,0,0.077,0.008l0.034-1.702
		C35.059,16.8,31.536,22.23,30.217,24.655z M54.608,61.285l-8.111-22.936c0.519-0.017,0.996-0.145,1.353-0.502
		c0.809-0.809,0.494-2.136,0.187-3.413c-0.136-0.562-0.383-1.591-0.264-1.838c0.187-0.213,1.226-0.374,1.787-0.46
		c1.311-0.204,2.664-0.417,3.098-1.481c0.434-1.047-0.357-2.145-1.132-3.2c-0.34-0.468-0.97-1.345-0.945-1.617
		c0.094-0.264,0.979-0.8,1.447-1.089c1.14-0.698,2.315-1.421,2.315-2.579c0-1.166-1.174-1.881-2.315-2.579
		c-0.468-0.289-1.353-0.834-1.447-1.081c-0.026-0.289,0.604-1.157,0.945-1.626c0.774-1.064,1.566-2.153,1.132-3.2
		c-0.434-1.064-1.787-1.277-3.098-1.481c-0.562-0.085-1.6-0.255-1.779-0.451c-0.128-0.255,0.119-1.294,0.255-1.847
		c0.306-1.277,0.621-2.604-0.187-3.413c-0.8-0.808-2.128-0.485-3.413-0.179c-0.553,0.128-1.583,0.374-1.83,0.255
		c-0.213-0.187-0.374-1.226-0.46-1.779c-0.213-1.311-0.417-2.664-1.481-3.106c-1.047-0.434-2.145,0.366-3.2,1.132
		C37,3.157,36.106,3.787,35.851,3.77c-0.264-0.094-0.8-0.979-1.089-1.455C34.064,1.174,33.34,0,32.183,0
		c-1.166,0-1.881,1.174-2.579,2.315c-0.289,0.477-0.834,1.362-1.081,1.447c-0.298,0.017-1.157-0.604-1.626-0.945
		c-1.064-0.766-2.153-1.566-3.2-1.132c-1.064,0.443-1.277,1.796-1.481,3.098c-0.094,0.562-0.255,1.6-0.46,1.779
		c-0.247,0.128-1.285-0.119-1.838-0.247c-1.277-0.306-2.604-0.63-3.413,0.179c-0.808,0.809-0.485,2.136-0.179,3.413
		c0.128,0.553,0.374,1.591,0.255,1.83c-0.187,0.213-1.226,0.374-1.787,0.468c-1.302,0.204-2.655,0.417-3.098,1.481
		c-0.434,1.047,0.366,2.136,1.132,3.2c0.34,0.468,0.97,1.336,0.945,1.609c-0.094,0.264-0.97,0.809-1.447,1.098
		c-1.14,0.698-2.315,1.413-2.315,2.579c0,1.157,1.174,1.881,2.315,2.579c0.477,0.289,1.353,0.826,1.447,1.081
		c0.026,0.281-0.604,1.157-0.945,1.626c-0.766,1.055-1.566,2.153-1.132,3.2c0.443,1.064,1.796,1.277,3.098,1.481
		c0.562,0.085,1.6,0.247,1.779,0.451c0.128,0.255-0.119,1.285-0.247,1.838c-0.315,1.285-0.63,2.613,0.179,3.413
		c0.281,0.281,0.621,0.417,0.996,0.477L9.417,61.209c-0.255,0.562-0.153,1.234,0.255,1.685c0.408,0.443,1.072,0.613,1.651,0.417
		l9.711-3.387l5.345,3.787C26.642,63.906,26.957,64,27.281,64c0.204,0,0.408-0.043,0.596-0.128c0.494-0.204,0.843-0.664,0.928-1.234
		l1.864-19.089c0.426,0.468,0.911,0.783,1.515,0.783c0.451,0,0.834-0.179,1.174-0.46l1.838,18.8c0.077,0.536,0.426,0.996,0.919,1.2
		C36.302,63.957,36.506,64,36.71,64c0.323,0,0.638-0.094,0.902-0.289l5.345-3.787l9.711,3.387c0.579,0.196,1.243,0.026,1.651-0.417
		C54.727,62.443,54.83,61.762,54.608,61.285z M27.136,62.162l-5.83-4.136l-10.221,3.566l8.281-23.438
		c0.187-0.043,0.366-0.085,0.553-0.128c0.553-0.136,1.591-0.383,1.83-0.255c0.213,0.179,0.374,1.226,0.468,1.779
		c0.204,1.311,0.417,2.664,1.481,3.106c1.038,0.434,2.136-0.366,3.2-1.14c0.468-0.34,1.319-0.962,1.609-0.945
		c0.162,0.06,0.426,0.4,0.664,0.774L27.136,62.162z M33.306,41.132c-0.043,0.068-0.085,0.136-0.136,0.221h-0.06l0.009,0.085
		c-0.315,0.502-0.723,1.132-0.919,1.2c-0.272-0.085-0.843-1.013-1.149-1.506c-0.638-1.047-1.251-2.043-2.204-2.23
		c-0.111-0.017-0.221-0.034-0.332-0.034c-0.877,0-1.762,0.647-2.621,1.277c-0.451,0.323-1.302,0.945-1.523,0.945
		c-0.221-0.179-0.383-1.234-0.477-1.804c-0.187-1.226-0.374-2.383-1.192-2.928c-0.826-0.553-1.966-0.281-3.183,0.009
		c-0.349,0.085-0.894,0.221-1.294,0.281l-0.119-0.043l-0.017,0.06c-0.17,0.017-0.298,0.026-0.357,0
		c-0.136-0.255,0.111-1.285,0.247-1.838c0.289-1.208,0.562-2.357,0.017-3.183c-0.553-0.817-1.711-0.996-2.936-1.192
		c-0.562-0.085-1.617-0.255-1.779-0.417c-0.017-0.281,0.596-1.123,0.928-1.583c0.706-0.97,1.43-1.966,1.234-2.953
		c-0.187-0.953-1.174-1.557-2.23-2.204c-0.477-0.298-1.37-0.843-1.489-1.123c0.119-0.289,1.013-0.834,1.489-1.132
		c1.055-0.638,2.043-1.243,2.23-2.204c0.196-0.979-0.528-1.983-1.234-2.953c-0.332-0.451-0.945-1.302-0.953-1.523
		c0.187-0.221,1.243-0.383,1.804-0.477c1.226-0.187,2.383-0.374,2.936-1.192c0.553-0.826,0.272-1.966-0.017-3.183
		c-0.128-0.553-0.374-1.583-0.289-1.787c0.247-0.128,1.277,0.119,1.83,0.247c1.217,0.289,2.357,0.57,3.183,0.017
		c0.817-0.553,1.004-1.711,1.192-2.928c0.094-0.57,0.255-1.626,0.417-1.787c0.281-0.043,1.132,0.596,1.583,0.928
		c0.97,0.706,1.974,1.43,2.953,1.234c0.962-0.187,1.566-1.174,2.204-2.221c0.306-0.502,0.877-1.421,1.106-1.506
		C32.438,1.787,33,2.706,33.306,3.208c0.647,1.047,1.251,2.034,2.204,2.221c0.987,0.196,1.983-0.528,2.953-1.234
		c0.46-0.332,1.302-0.945,1.523-0.953c0.221,0.187,0.392,1.243,0.477,1.813c0.196,1.217,0.374,2.374,1.192,2.928
		c0.826,0.553,1.974,0.272,3.183-0.017c0.553-0.128,1.583-0.374,1.796-0.289c0.128,0.255-0.119,1.285-0.255,1.838
		c-0.289,1.208-0.562,2.349-0.009,3.174c0.545,0.826,1.702,1.004,2.928,1.192c0.57,0.094,1.626,0.255,1.787,0.417
		c0.017,0.281-0.604,1.132-0.928,1.583c-0.706,0.97-1.438,1.974-1.243,2.953c0.187,0.962,1.183,1.566,2.23,2.204
		c0.494,0.306,1.421,0.877,1.498,1.106c-0.077,0.281-1.004,0.843-1.498,1.149c-1.047,0.647-2.043,1.251-2.23,2.204
		c-0.196,0.987,0.536,1.983,1.234,2.953c0.332,0.46,0.953,1.302,0.953,1.523c-0.179,0.221-1.234,0.392-1.804,0.477
		c-1.226,0.196-2.383,0.374-2.928,1.192c-0.553,0.826-0.281,1.974,0.009,3.183c0.136,0.553,0.383,1.583,0.298,1.796
		c-0.255,0.128-1.285-0.119-1.838-0.255c-1.209-0.289-2.357-0.562-3.183-0.009c-0.817,0.545-0.996,1.702-1.192,2.928
		c-0.085,0.57-0.255,1.626-0.417,1.787c-0.264,0.034-1.123-0.604-1.583-0.928c-0.97-0.706-1.966-1.438-2.953-1.243
		C34.557,39.089,33.953,40.085,33.306,41.132z M42.685,58.026l-5.83,4.136l-1.992-20.315c0.306-0.494,0.757-1.192,0.979-1.277
		c0.281-0.009,1.157,0.604,1.626,0.945c1.055,0.774,2.153,1.566,3.2,1.14c1.055-0.443,1.268-1.796,1.481-3.106
		c0.085-0.553,0.247-1.6,0.451-1.779c0.255-0.128,1.285,0.119,1.838,0.255c0.051,0.009,0.102,0.026,0.153,0.034l8.323,23.532
		L42.685,58.026z M46.651,22.17c0-7.983-6.494-14.468-14.468-14.468c-7.983,0-14.468,6.485-14.468,14.468
		c0,7.974,6.485,14.468,14.468,14.468C40.157,36.638,46.651,30.145,46.651,22.17z M32.183,34.936
		c-7.038,0-12.766-5.728-12.766-12.766c0-7.038,5.728-12.766,12.766-12.766c7.038,0,12.766,5.728,12.766,12.766
		C44.949,29.208,39.221,34.936,32.183,34.936z M30.217,24.655l-3.336-3.651l-1.26,1.149l4.17,4.562
		c0.162,0.179,0.391,0.281,0.63,0.281c0.043,0,0.085-0.009,0.136-0.009c0.281-0.051,0.519-0.23,0.638-0.494
		c0.034-0.077,3.651-7.932,8.579-7.932c0.026,0,0.051,0,0.077,0.008l0.034-1.702C35.059,16.8,31.536,22.23,30.217,24.655z
		 M30.217,24.655l-3.336-3.651l-1.26,1.149l4.17,4.562c0.162,0.179,0.391,0.281,0.63,0.281c0.043,0,0.085-0.009,0.136-0.009
		c0.281-0.051,0.519-0.23,0.638-0.494c0.034-0.077,3.651-7.932,8.579-7.932c0.026,0,0.051,0,0.077,0.008l0.034-1.702
		C35.059,16.8,31.536,22.23,30.217,24.655z M30.217,24.655l-3.336-3.651l-1.26,1.149l4.17,4.562c0.162,0.179,0.391,0.281,0.63,0.281
		c0.043,0,0.085-0.009,0.136-0.009c0.281-0.051,0.519-0.23,0.638-0.494c0.034-0.077,3.651-7.932,8.579-7.932
		c0.026,0,0.051,0,0.077,0.008l0.034-1.702C35.059,16.8,31.536,22.23,30.217,24.655z M32.183,7.702
		c-7.983,0-14.468,6.485-14.468,14.468c0,7.974,6.485,14.468,14.468,14.468c7.974,0,14.468-6.494,14.468-14.468
		C46.651,14.187,40.157,7.702,32.183,7.702z M32.183,34.936c-7.038,0-12.766-5.728-12.766-12.766
		c0-7.038,5.728-12.766,12.766-12.766c7.038,0,12.766,5.728,12.766,12.766C44.949,29.208,39.221,34.936,32.183,34.936z
		 M30.217,24.655l-3.336-3.651l-1.26,1.149l4.17,4.562c0.162,0.179,0.391,0.281,0.63,0.281c0.043,0,0.085-0.009,0.136-0.009
		c0.281-0.051,0.519-0.23,0.638-0.494c0.034-0.077,3.651-7.932,8.579-7.932c0.026,0,0.051,0,0.077,0.008l0.034-1.702
		C35.059,16.8,31.536,22.23,30.217,24.655z M30.217,24.655l-3.336-3.651l-1.26,1.149l4.17,4.562c0.162,0.179,0.391,0.281,0.63,0.281
		c0.043,0,0.085-0.009,0.136-0.009c0.281-0.051,0.519-0.23,0.638-0.494c0.034-0.077,3.651-7.932,8.579-7.932
		c0.026,0,0.051,0,0.077,0.008l0.034-1.702C35.059,16.8,31.536,22.23,30.217,24.655z M30.217,24.655l-3.336-3.651l-1.26,1.149
		l4.17,4.562c0.162,0.179,0.391,0.281,0.63,0.281c0.043,0,0.085-0.009,0.136-0.009c0.281-0.051,0.519-0.23,0.638-0.494
		c0.034-0.077,3.651-7.932,8.579-7.932c0.026,0,0.051,0,0.077,0.008l0.034-1.702C35.059,16.8,31.536,22.23,30.217,24.655z
		 M32.183,7.702c-7.983,0-14.468,6.485-14.468,14.468c0,7.974,6.485,14.468,14.468,14.468c7.974,0,14.468-6.494,14.468-14.468
		C46.651,14.187,40.157,7.702,32.183,7.702z M32.183,34.936c-7.038,0-12.766-5.728-12.766-12.766
		c0-7.038,5.728-12.766,12.766-12.766c7.038,0,12.766,5.728,12.766,12.766C44.949,29.208,39.221,34.936,32.183,34.936z
		 M30.217,24.655l-3.336-3.651l-1.26,1.149l4.17,4.562c0.162,0.179,0.391,0.281,0.63,0.281c0.043,0,0.085-0.009,0.136-0.009
		c0.281-0.051,0.519-0.23,0.638-0.494c0.034-0.077,3.651-7.932,8.579-7.932c0.026,0,0.051,0,0.077,0.008l0.034-1.702
		C35.059,16.8,31.536,22.23,30.217,24.655z M30.217,24.655l-3.336-3.651l-1.26,1.149l4.17,4.562c0.162,0.179,0.391,0.281,0.63,0.281
		c0.043,0,0.085-0.009,0.136-0.009c0.281-0.051,0.519-0.23,0.638-0.494c0.034-0.077,3.651-7.932,8.579-7.932
		c0.026,0,0.051,0,0.077,0.008l0.034-1.702C35.059,16.8,31.536,22.23,30.217,24.655z M30.217,24.655l-3.336-3.651l-1.26,1.149
		l4.17,4.562c0.162,0.179,0.391,0.281,0.63,0.281c0.043,0,0.085-0.009,0.136-0.009c0.281-0.051,0.519-0.23,0.638-0.494
		c0.034-0.077,3.651-7.932,8.579-7.932c0.026,0,0.051,0,0.077,0.008l0.034-1.702C35.059,16.8,31.536,22.23,30.217,24.655z
		 M30.217,24.655l-3.336-3.651l-1.26,1.149l4.17,4.562c0.162,0.179,0.391,0.281,0.63,0.281c0.043,0,0.085-0.009,0.136-0.009
		c0.281-0.051,0.519-0.23,0.638-0.494c0.034-0.077,3.651-7.932,8.579-7.932c0.026,0,0.051,0,0.077,0.008l0.034-1.702
		C35.059,16.8,31.536,22.23,30.217,24.655z M30.217,24.655l-3.336-3.651l-1.26,1.149l4.17,4.562c0.162,0.179,0.391,0.281,0.63,0.281
		c0.043,0,0.085-0.009,0.136-0.009c0.281-0.051,0.519-0.23,0.638-0.494c0.034-0.077,3.651-7.932,8.579-7.932
		c0.026,0,0.051,0,0.077,0.008l0.034-1.702C35.059,16.8,31.536,22.23,30.217,24.655z M30.217,24.655l-3.336-3.651l-1.26,1.149
		l4.17,4.562c0.162,0.179,0.391,0.281,0.63,0.281c0.043,0,0.085-0.009,0.136-0.009c0.281-0.051,0.519-0.23,0.638-0.494
		c0.034-0.077,3.651-7.932,8.579-7.932c0.026,0,0.051,0,0.077,0.008l0.034-1.702C35.059,16.8,31.536,22.23,30.217,24.655z
		 M32.183,7.702c-7.983,0-14.468,6.485-14.468,14.468c0,7.974,6.485,14.468,14.468,14.468c7.974,0,14.468-6.494,14.468-14.468
		C46.651,14.187,40.157,7.702,32.183,7.702z M32.183,34.936c-7.038,0-12.766-5.728-12.766-12.766
		c0-7.038,5.728-12.766,12.766-12.766c7.038,0,12.766,5.728,12.766,12.766C44.949,29.208,39.221,34.936,32.183,34.936z
		 M30.217,24.655l-3.336-3.651l-1.26,1.149l4.17,4.562c0.162,0.179,0.391,0.281,0.63,0.281c0.043,0,0.085-0.009,0.136-0.009
		c0.281-0.051,0.519-0.23,0.638-0.494c0.034-0.077,3.651-7.932,8.579-7.932c0.026,0,0.051,0,0.077,0.008l0.034-1.702
		C35.059,16.8,31.536,22.23,30.217,24.655z M30.217,24.655l-3.336-3.651l-1.26,1.149l4.17,4.562c0.162,0.179,0.391,0.281,0.63,0.281
		c0.043,0,0.085-0.009,0.136-0.009c0.281-0.051,0.519-0.23,0.638-0.494c0.034-0.077,3.651-7.932,8.579-7.932
		c0.026,0,0.051,0,0.077,0.008l0.034-1.702C35.059,16.8,31.536,22.23,30.217,24.655z M30.217,24.655l-3.336-3.651l-1.26,1.149
		l4.17,4.562c0.162,0.179,0.391,0.281,0.63,0.281c0.043,0,0.085-0.009,0.136-0.009c0.281-0.051,0.519-0.23,0.638-0.494
		c0.034-0.077,3.651-7.932,8.579-7.932c0.026,0,0.051,0,0.077,0.008l0.034-1.702C35.059,16.8,31.536,22.23,30.217,24.655z"/>
	<path style="fill:#EF6825;" d="M32.183,9.404c-7.038,0-12.766,5.728-12.766,12.766c0,7.038,5.728,12.766,12.766,12.766
		c7.038,0,12.766-5.728,12.766-12.766C44.949,15.132,39.221,9.404,32.183,9.404z M39.851,18.57
		c-0.026-0.008-0.051-0.008-0.077-0.008c-4.928,0-8.545,7.855-8.579,7.932c-0.119,0.264-0.357,0.443-0.638,0.494
		c-0.051,0-0.094,0.009-0.136,0.009c-0.238,0-0.468-0.102-0.63-0.281l-4.17-4.562l1.26-1.149l3.336,3.651
		c1.319-2.426,4.843-7.855,9.668-7.787L39.851,18.57z M52.915,61.592l-10.23-3.566l-5.83,4.136l-1.992-20.315
		c0.306-0.494,0.757-1.192,0.979-1.277c0.281-0.009,1.157,0.604,1.626,0.945c1.055,0.774,2.153,1.566,3.2,1.14
		c1.055-0.443,1.268-1.796,1.481-3.106c0.085-0.553,0.247-1.6,0.451-1.779c0.255-0.128,1.285,0.119,1.838,0.255
		c0.051,0.009,0.102,0.026,0.153,0.034L52.915,61.592z M29.17,41.345l-2.034,20.817l-5.83-4.136l-10.221,3.566l8.281-23.438
		c0.187-0.043,0.366-0.085,0.553-0.128c0.553-0.136,1.591-0.383,1.83-0.255c0.213,0.179,0.374,1.226,0.468,1.779
		c0.204,1.311,0.417,2.664,1.481,3.106c1.038,0.434,2.136-0.366,3.2-1.14c0.468-0.34,1.319-0.962,1.609-0.945
		C28.668,40.63,28.932,40.97,29.17,41.345z"/>
</g>
<g id="Layer_1">
</g>
</svg>
