<?xml version="1.0" encoding="iso-8859-1"?>
<!-- Generator: Adobe Illustrator 24.0.3, SVG Export Plug-In . SVG Version: 6.00 Build 0)  -->
<svg version="1.1" xmlns="http://www.w3.org/2000/svg" xmlns:xlink="http://www.w3.org/1999/xlink" x="0px" y="0px"
	 viewBox="0 0 64 64" style="enable-background:new 0 0 64 64;" xml:space="preserve">
<g id="achievement-badge-05">
	<path style="fill:#231F20;" d="M44.215,30.743v1.154h4.741v-1.154H44.215z M43.061,27.859v1.154h4.741v-1.154H43.061z
		 M43.061,33.626v1.154h4.741v-1.154H43.061z M15.953,27.859v1.154h4.741v-1.154H15.953z M15.953,33.626v1.154h4.741v-1.154H15.953z
		 M14.8,30.743v1.154h4.741v-1.154H14.8z M38.793,29.012c-0.121-0.369-0.461-0.64-0.848-0.669l-3.639-0.288l-1.407-3.374
		c-0.15-0.363-0.508-0.6-0.9-0.6c-0.386,0-0.75,0.236-0.9,0.6l-1.402,3.374l-3.639,0.288c-0.392,0.035-0.733,0.3-0.854,0.675
		c-0.121,0.369,0,0.784,0.294,1.038l2.774,2.376l-0.848,3.553c-0.069,0.277-0.006,0.583,0.167,0.813
		c0.173,0.231,0.444,0.375,0.733,0.392c0.017-0.006,0.029,0,0.046,0c0.179,0,0.358-0.052,0.513-0.144l3.115-1.903l3.115,1.903
		c0.334,0.202,0.773,0.185,1.084-0.046c0.317-0.225,0.467-0.634,0.375-1.015l-0.848-3.553l2.774-2.37
		C38.799,29.808,38.914,29.387,38.793,29.012z M34.71,31.787c-0.167,0.138-0.236,0.363-0.185,0.571l0.831,3.484l-3.057-1.869
		c-0.185-0.11-0.415-0.11-0.6,0l-3.051,1.869l0.831-3.484c0.046-0.208-0.023-0.433-0.19-0.571l-2.717-2.324l3.564-0.288
		c0.219-0.017,0.404-0.156,0.49-0.352l1.373-3.305l1.378,3.305c0.081,0.196,0.265,0.334,0.484,0.352l3.564,0.288L34.71,31.787z
		 M44.215,30.743v1.154h4.741v-1.154H44.215z M43.061,33.626v1.154h4.741v-1.154H43.061z M43.061,27.859v1.154h4.741v-1.154H43.061z
		 M38.793,29.012c-0.121-0.369-0.461-0.64-0.848-0.669l-3.639-0.288l-1.407-3.374c-0.15-0.363-0.508-0.6-0.9-0.6
		c-0.386,0-0.75,0.236-0.9,0.6l-1.402,3.374l-3.639,0.288c-0.392,0.035-0.733,0.3-0.854,0.675c-0.121,0.369,0,0.784,0.294,1.038
		l2.774,2.376l-0.848,3.553c-0.069,0.277-0.006,0.583,0.167,0.813c0.173,0.231,0.444,0.375,0.733,0.392c0.017-0.006,0.029,0,0.046,0
		c0.179,0,0.358-0.052,0.513-0.144l3.115-1.903l3.115,1.903c0.334,0.202,0.773,0.185,1.084-0.046
		c0.317-0.225,0.467-0.634,0.375-1.015l-0.848-3.553l2.774-2.37C38.799,29.808,38.914,29.387,38.793,29.012z M34.71,31.787
		c-0.167,0.138-0.236,0.363-0.185,0.571l0.831,3.484l-3.057-1.869c-0.185-0.11-0.415-0.11-0.6,0l-3.051,1.869l0.831-3.484
		c0.046-0.208-0.023-0.433-0.19-0.571l-2.717-2.324l3.564-0.288c0.219-0.017,0.404-0.156,0.49-0.352l1.373-3.305l1.378,3.305
		c0.081,0.196,0.265,0.334,0.484,0.352l3.564,0.288L34.71,31.787z M15.953,33.626v1.154h4.741v-1.154H15.953z M15.953,27.859v1.154
		h4.741v-1.154H15.953z M14.8,30.743v1.154h4.741v-1.154H14.8z M14.8,30.743v1.154h4.741v-1.154H14.8z M15.953,27.859v1.154h4.741
		v-1.154H15.953z M15.953,33.626v1.154h4.741v-1.154H15.953z M38.793,29.012c-0.121-0.369-0.461-0.64-0.848-0.669l-3.639-0.288
		l-1.407-3.374c-0.15-0.363-0.508-0.6-0.9-0.6c-0.386,0-0.75,0.236-0.9,0.6l-1.402,3.374l-3.639,0.288
		c-0.392,0.035-0.733,0.3-0.854,0.675c-0.121,0.369,0,0.784,0.294,1.038l2.774,2.376l-0.848,3.553
		c-0.069,0.277-0.006,0.583,0.167,0.813c0.173,0.231,0.444,0.375,0.733,0.392c0.017-0.006,0.029,0,0.046,0
		c0.179,0,0.358-0.052,0.513-0.144l3.115-1.903l3.115,1.903c0.334,0.202,0.773,0.185,1.084-0.046
		c0.317-0.225,0.467-0.634,0.375-1.015l-0.848-3.553l2.774-2.37C38.799,29.808,38.914,29.387,38.793,29.012z M34.71,31.787
		c-0.167,0.138-0.236,0.363-0.185,0.571l0.831,3.484l-3.057-1.869c-0.185-0.11-0.415-0.11-0.6,0l-3.051,1.869l0.831-3.484
		c0.046-0.208-0.023-0.433-0.19-0.571l-2.717-2.324l3.564-0.288c0.219-0.017,0.404-0.156,0.49-0.352l1.373-3.305l1.378,3.305
		c0.081,0.196,0.265,0.334,0.484,0.352l3.564,0.288L34.71,31.787z M43.061,27.859v1.154h4.741v-1.154H43.061z M43.061,33.626v1.154
		h4.741v-1.154H43.061z M44.215,30.743v1.154h4.741v-1.154H44.215z M44.215,30.743v1.154h4.741v-1.154H44.215z M43.061,34.78h4.741
		v-1.154h-4.741V34.78z M47.802,27.859h-4.741v1.154h4.741V27.859z M38.793,29.012c-0.121-0.369-0.461-0.64-0.848-0.669
		l-3.639-0.288l-1.407-3.374c-0.15-0.363-0.508-0.6-0.9-0.6c-0.386,0-0.75,0.236-0.9,0.6l-1.402,3.374l-3.639,0.288
		c-0.392,0.035-0.733,0.3-0.854,0.675c-0.121,0.369,0,0.784,0.294,1.038l2.774,2.376l-0.848,3.553
		c-0.069,0.277-0.006,0.583,0.167,0.813c0.173,0.231,0.444,0.375,0.733,0.392c0.017-0.006,0.029,0,0.046,0
		c0.179,0,0.358-0.052,0.513-0.144l3.115-1.903l3.115,1.903c0.334,0.202,0.773,0.185,1.084-0.046
		c0.317-0.225,0.467-0.634,0.375-1.015l-0.848-3.553l2.774-2.37C38.799,29.808,38.914,29.387,38.793,29.012z M34.71,31.787
		c-0.167,0.138-0.236,0.363-0.185,0.571l0.831,3.484l-3.057-1.869c-0.185-0.11-0.415-0.11-0.6,0l-3.051,1.869l0.831-3.484
		c0.046-0.208-0.023-0.433-0.19-0.571l-2.717-2.324l3.564-0.288c0.219-0.017,0.404-0.156,0.49-0.352l1.373-3.305l1.378,3.305
		c0.081,0.196,0.265,0.334,0.484,0.352l3.564,0.288L34.71,31.787z M15.953,34.78h4.741v-1.154h-4.741V34.78z M15.953,27.859v1.154
		h4.741v-1.154H15.953z M19.541,30.743H14.8v1.154h4.741V30.743z M59.51,35.934l4.389-6.333c0.121-0.179,0.133-0.41,0.035-0.6
		c-0.098-0.19-0.294-0.306-0.513-0.306H53.039v-4.037c0-0.323-0.254-0.577-0.577-0.577H39.526c-1.892-2.001-4.562-3.253-7.527-3.253
		c-2.959,0-5.629,1.252-7.521,3.253H11.535c-0.317,0-0.577,0.254-0.577,0.577v4.037H0.577c-0.213,0-0.41,0.115-0.513,0.306
		c-0.098,0.19-0.081,0.421,0.04,0.6l4.383,6.333l-4.383,6.333c-0.121,0.179-0.138,0.404-0.04,0.594
		c0.104,0.19,0.3,0.311,0.513,0.311h10.935c0.323,0,0.577-0.26,0.577-0.577v-2.884h-1.154v2.307H1.678l3.985-5.756
		c0.138-0.196,0.138-0.461,0-0.658l-3.985-5.756h9.28v8.132c0,0.317,0.26,0.577,0.577,0.577h13.139
		c1.88,1.874,4.47,3.034,7.325,3.034c2.861,0,5.45-1.159,7.331-3.034h13.133c0.323,0,0.577-0.26,0.577-0.577v-8.132h9.28
		l-3.985,5.756c-0.138,0.196-0.138,0.461,0,0.658l3.985,5.756h-9.257v-2.307h-1.154v2.884c0,0.317,0.26,0.577,0.577,0.577h10.935
		c0.219,0,0.415-0.121,0.513-0.311c0.098-0.19,0.087-0.415-0.035-0.594L59.51,35.934z M12.112,37.404v-12.17h11.414
		c-1.2,1.69-1.909,3.749-1.909,5.975c0,2.324,0.779,4.464,2.071,6.194H12.112z M31.999,40.438c-5.087,0-9.228-4.141-9.228-9.228
		s4.141-9.228,9.228-9.228s9.228,4.141,9.228,9.228S37.086,40.438,31.999,40.438z M51.886,37.404H40.31
		c1.298-1.73,2.071-3.87,2.071-6.194c0-2.226-0.709-4.285-1.909-5.975h11.414V37.404z M44.215,31.896h4.741v-1.154h-4.741V31.896z
		 M47.802,33.626h-4.741v1.154h4.741V33.626z M47.802,27.859h-4.741v1.154h4.741V27.859z M38.793,29.012
		c-0.121-0.369-0.461-0.64-0.848-0.669l-3.639-0.288l-1.407-3.374c-0.15-0.363-0.508-0.6-0.9-0.6c-0.386,0-0.75,0.236-0.9,0.6
		l-1.402,3.374l-3.639,0.288c-0.392,0.035-0.733,0.3-0.854,0.675c-0.121,0.369,0,0.784,0.294,1.038l2.774,2.376l-0.848,3.553
		c-0.069,0.277-0.006,0.583,0.167,0.813c0.173,0.231,0.444,0.375,0.733,0.392c0.017-0.006,0.029,0,0.046,0
		c0.179,0,0.358-0.052,0.513-0.144l3.115-1.903l3.115,1.903c0.334,0.202,0.773,0.185,1.084-0.046
		c0.317-0.225,0.467-0.634,0.375-1.015l-0.848-3.553l2.774-2.37C38.799,29.808,38.914,29.387,38.793,29.012z M34.71,31.787
		c-0.167,0.138-0.236,0.363-0.185,0.571l0.831,3.484l-3.057-1.869c-0.185-0.11-0.415-0.11-0.6,0l-3.051,1.869l0.831-3.484
		c0.046-0.208-0.023-0.433-0.19-0.571l-2.717-2.324l3.564-0.288c0.219-0.017,0.404-0.156,0.49-0.352l1.373-3.305l1.378,3.305
		c0.081,0.196,0.265,0.334,0.484,0.352l3.564,0.288L34.71,31.787z M15.953,34.78h4.741v-1.154h-4.741V34.78z M15.953,29.012h4.741
		v-1.154h-4.741V29.012z M19.541,30.743H14.8v1.154h4.741V30.743z M14.8,30.743v1.154h4.741v-1.154H14.8z M15.953,27.859v1.154
		h4.741v-1.154H15.953z M15.953,33.626v1.154h4.741v-1.154H15.953z M38.793,29.012c-0.121-0.369-0.461-0.64-0.848-0.669
		l-3.639-0.288l-1.407-3.374c-0.15-0.363-0.508-0.6-0.9-0.6c-0.386,0-0.75,0.236-0.9,0.6l-1.402,3.374l-3.639,0.288
		c-0.392,0.035-0.733,0.3-0.854,0.675c-0.121,0.369,0,0.784,0.294,1.038l2.774,2.376l-0.848,3.553
		c-0.069,0.277-0.006,0.583,0.167,0.813c0.173,0.231,0.444,0.375,0.733,0.392c0.017-0.006,0.029,0,0.046,0
		c0.179,0,0.358-0.052,0.513-0.144l3.115-1.903l3.115,1.903c0.334,0.202,0.773,0.185,1.084-0.046
		c0.317-0.225,0.467-0.634,0.375-1.015l-0.848-3.553l2.774-2.37C38.799,29.808,38.914,29.387,38.793,29.012z M34.71,31.787
		c-0.167,0.138-0.236,0.363-0.185,0.571l0.831,3.484l-3.057-1.869c-0.185-0.11-0.415-0.11-0.6,0l-3.051,1.869l0.831-3.484
		c0.046-0.208-0.023-0.433-0.19-0.571l-2.717-2.324l3.564-0.288c0.219-0.017,0.404-0.156,0.49-0.352l1.373-3.305l1.378,3.305
		c0.081,0.196,0.265,0.334,0.484,0.352l3.564,0.288L34.71,31.787z M43.061,27.859v1.154h4.741v-1.154H43.061z M43.061,33.626v1.154
		h4.741v-1.154H43.061z M44.215,30.743v1.154h4.741v-1.154H44.215z M44.215,30.743v1.154h4.741v-1.154H44.215z M43.061,33.626v1.154
		h4.741v-1.154H43.061z M43.061,27.859v1.154h4.741v-1.154H43.061z M38.793,29.012c-0.121-0.369-0.461-0.64-0.848-0.669
		l-3.639-0.288l-1.407-3.374c-0.15-0.363-0.508-0.6-0.9-0.6c-0.386,0-0.75,0.236-0.9,0.6l-1.402,3.374l-3.639,0.288
		c-0.392,0.035-0.733,0.3-0.854,0.675c-0.121,0.369,0,0.784,0.294,1.038l2.774,2.376l-0.848,3.553
		c-0.069,0.277-0.006,0.583,0.167,0.813c0.173,0.231,0.444,0.375,0.733,0.392c0.017-0.006,0.029,0,0.046,0
		c0.179,0,0.358-0.052,0.513-0.144l3.115-1.903l3.115,1.903c0.334,0.202,0.773,0.185,1.084-0.046
		c0.317-0.225,0.467-0.634,0.375-1.015l-0.848-3.553l2.774-2.37C38.799,29.808,38.914,29.387,38.793,29.012z M34.71,31.787
		c-0.167,0.138-0.236,0.363-0.185,0.571l0.831,3.484l-3.057-1.869c-0.185-0.11-0.415-0.11-0.6,0l-3.051,1.869l0.831-3.484
		c0.046-0.208-0.023-0.433-0.19-0.571l-2.717-2.324l3.564-0.288c0.219-0.017,0.404-0.156,0.49-0.352l1.373-3.305l1.378,3.305
		c0.081,0.196,0.265,0.334,0.484,0.352l3.564,0.288L34.71,31.787z M15.953,33.626v1.154h4.741v-1.154H15.953z M15.953,27.859v1.154
		h4.741v-1.154H15.953z M14.8,30.743v1.154h4.741v-1.154H14.8z"/>
	<path style="fill:#EF6825;" d="M34.525,32.358l0.831,3.484l-3.057-1.869c-0.185-0.11-0.415-0.11-0.6,0l-3.051,1.869l0.831-3.484
		c0.046-0.208-0.023-0.433-0.19-0.571l-2.717-2.324l3.564-0.288c0.219-0.017,0.404-0.156,0.49-0.352l1.373-3.305l1.378,3.305
		c0.081,0.196,0.265,0.334,0.484,0.352l3.564,0.288l-2.717,2.324C34.542,31.925,34.473,32.15,34.525,32.358z M51.886,25.235v12.17
		H40.31c1.298-1.73,2.071-3.87,2.071-6.194c0-2.226-0.709-4.285-1.909-5.975H51.886z M43.061,29.012h4.741v-1.154h-4.741V29.012z
		 M47.802,33.626h-4.741v1.154h4.741V33.626z M48.956,30.743h-4.741v1.154h4.741V30.743z M23.688,37.404H12.112v-12.17h11.414
		c-1.2,1.69-1.909,3.749-1.909,5.975C21.617,33.534,22.396,35.674,23.688,37.404z M14.8,31.896h4.741v-1.154H14.8V31.896z
		 M20.694,33.626h-4.741v1.154h4.741V33.626z M20.694,27.859h-4.741v1.154h4.741V27.859z"/>
</g>
<g id="Layer_1">
</g>
</svg>
