<?xml version="1.0" encoding="iso-8859-1"?>
<!-- Generator: Adobe Illustrator 24.0.3, SVG Export Plug-In . SVG Version: 6.00 Build 0)  -->
<svg version="1.1" xmlns="http://www.w3.org/2000/svg" xmlns:xlink="http://www.w3.org/1999/xlink" x="0px" y="0px"
	 viewBox="0 0 64 64" style="enable-background:new 0 0 64 64;" xml:space="preserve">
<g id="achievement-badge-06">
	<path style="fill:#231F20;" d="M43.113,15.475c-0.213-0.651-0.81-1.12-1.493-1.173l-5.802-0.469l-2.24-5.386
		C33.312,7.817,32.683,7.401,32,7.401s-1.322,0.416-1.589,1.045l-2.229,5.386l-5.812,0.469c-0.683,0.053-1.28,0.523-1.493,1.173
		c-0.203,0.651,0,1.386,0.523,1.834l4.415,3.786l-1.344,5.663c-0.117,0.491-0.011,1.024,0.288,1.418
		c0.309,0.405,0.789,0.661,1.29,0.693c0,0.032,0.053,0,0.085,0c0.32,0,0.629-0.085,0.896-0.256L32,25.585l4.97,3.029
		c0.587,0.363,1.344,0.331,1.898-0.075c0.555-0.395,0.821-1.12,0.661-1.781l-1.354-5.663l4.426-3.786
		C43.113,16.861,43.326,16.125,43.113,15.475z M36.287,19.901c-0.299,0.256-0.427,0.661-0.341,1.056l1.269,5.311l-4.661-2.848
		c-0.171-0.107-0.363-0.16-0.555-0.16s-0.395,0.053-0.565,0.16l-4.661,2.848l1.269-5.311c0.096-0.395-0.032-0.8-0.341-1.056
		l-4.149-3.562l5.439-0.437c0.405-0.032,0.747-0.277,0.907-0.651L32,10.206l2.101,5.045c0.149,0.373,0.501,0.619,0.896,0.651
		l5.45,0.437L36.287,19.901z M43.113,15.475c-0.213-0.651-0.81-1.12-1.493-1.173l-5.802-0.469l-2.24-5.386
		C33.312,7.817,32.683,7.401,32,7.401s-1.322,0.416-1.589,1.045l-2.229,5.386l-5.812,0.469c-0.683,0.053-1.28,0.523-1.493,1.173
		c-0.203,0.651,0,1.386,0.523,1.834l4.415,3.786l-1.344,5.663c-0.117,0.491-0.011,1.024,0.288,1.418
		c0.309,0.405,0.789,0.661,1.29,0.693c0,0.032,0.053,0,0.085,0c0.32,0,0.629-0.085,0.896-0.256L32,25.585l4.97,3.029
		c0.587,0.363,1.344,0.331,1.898-0.075c0.555-0.395,0.821-1.12,0.661-1.781l-1.354-5.663l4.426-3.786
		C43.113,16.861,43.326,16.125,43.113,15.475z M36.287,19.901c-0.299,0.256-0.427,0.661-0.341,1.056l1.269,5.311l-4.661-2.848
		c-0.171-0.107-0.363-0.16-0.555-0.16s-0.395,0.053-0.565,0.16l-4.661,2.848l1.269-5.311c0.096-0.395-0.032-0.8-0.341-1.056
		l-4.149-3.562l5.439-0.437c0.405-0.032,0.747-0.277,0.907-0.651L32,10.206l2.101,5.045c0.149,0.373,0.501,0.619,0.896,0.651
		l5.45,0.437L36.287,19.901z M43.155,56.695h-2.037v-3.029c0-1.184-0.949-2.133-2.133-2.133h-2.944V37.956
		c8.649-1.856,15.155-9.556,15.155-18.76C51.197,8.617,42.58,0,32,0C21.41,0,12.803,8.617,12.803,19.197
		c0,9.204,6.506,16.904,15.155,18.76v13.576h-2.954c-1.173,0-2.133,0.949-2.133,2.133v3.029h-2.026c-1.77,0-3.199,1.44-3.199,3.199
		V64h28.71v-4.106C46.355,58.134,44.915,56.695,43.155,56.695z M14.936,19.197C14.936,9.79,22.583,2.133,32,2.133
		c9.406,0,17.064,7.657,17.064,17.064c0,9.406-7.657,17.064-17.064,17.064C22.583,36.261,14.936,28.603,14.936,19.197z
		 M33.909,38.298v13.235h-3.818V38.298c0.629,0.064,1.258,0.096,1.909,0.096C32.64,38.394,33.28,38.362,33.909,38.298z
		 M25.004,53.666h13.982v3.029H25.004V53.666z M44.222,61.867H19.778v-1.973c0-0.587,0.469-1.066,1.066-1.066h22.311
		c0.587,0,1.066,0.48,1.066,1.066V61.867z M36.97,28.614c0.587,0.363,1.344,0.331,1.898-0.075c0.555-0.395,0.821-1.12,0.661-1.781
		l-1.354-5.663l4.426-3.786c0.512-0.448,0.725-1.184,0.512-1.834c-0.213-0.651-0.81-1.12-1.493-1.173l-5.802-0.469l-2.24-5.386
		C33.312,7.817,32.683,7.401,32,7.401s-1.322,0.416-1.589,1.045l-2.229,5.386l-5.812,0.469c-0.683,0.053-1.28,0.523-1.493,1.173
		c-0.203,0.651,0,1.386,0.523,1.834l4.415,3.786l-1.344,5.663c-0.117,0.491-0.011,1.024,0.288,1.418
		c0.309,0.405,0.789,0.661,1.29,0.693c0,0.032,0.053,0,0.085,0c0.32,0,0.629-0.085,0.896-0.256L32,25.585L36.97,28.614z
		 M26.774,26.268l1.269-5.311c0.096-0.395-0.032-0.8-0.341-1.056l-4.149-3.562l5.439-0.437c0.405-0.032,0.747-0.277,0.907-0.651
		L32,10.206l2.101,5.045c0.149,0.373,0.501,0.619,0.896,0.651l5.45,0.437l-4.159,3.562c-0.299,0.256-0.427,0.661-0.341,1.056
		l1.269,5.311l-4.661-2.848c-0.171-0.107-0.363-0.16-0.555-0.16s-0.395,0.053-0.565,0.16L26.774,26.268z M43.113,15.475
		c-0.213-0.651-0.81-1.12-1.493-1.173l-5.802-0.469l-2.24-5.386C33.312,7.817,32.683,7.401,32,7.401s-1.322,0.416-1.589,1.045
		l-2.229,5.386l-5.812,0.469c-0.683,0.053-1.28,0.523-1.493,1.173c-0.203,0.651,0,1.386,0.523,1.834l4.415,3.786l-1.344,5.663
		c-0.117,0.491-0.011,1.024,0.288,1.418c0.309,0.405,0.789,0.661,1.29,0.693c0,0.032,0.053,0,0.085,0
		c0.32,0,0.629-0.085,0.896-0.256L32,25.585l4.97,3.029c0.587,0.363,1.344,0.331,1.898-0.075c0.555-0.395,0.821-1.12,0.661-1.781
		l-1.354-5.663l4.426-3.786C43.113,16.861,43.326,16.125,43.113,15.475z M36.287,19.901c-0.299,0.256-0.427,0.661-0.341,1.056
		l1.269,5.311l-4.661-2.848c-0.171-0.107-0.363-0.16-0.555-0.16s-0.395,0.053-0.565,0.16l-4.661,2.848l1.269-5.311
		c0.096-0.395-0.032-0.8-0.341-1.056l-4.149-3.562l5.439-0.437c0.405-0.032,0.747-0.277,0.907-0.651L32,10.206l2.101,5.045
		c0.149,0.373,0.501,0.619,0.896,0.651l5.45,0.437L36.287,19.901z M43.113,15.475c-0.213-0.651-0.81-1.12-1.493-1.173l-5.802-0.469
		l-2.24-5.386C33.312,7.817,32.683,7.401,32,7.401s-1.322,0.416-1.589,1.045l-2.229,5.386l-5.812,0.469
		c-0.683,0.053-1.28,0.523-1.493,1.173c-0.203,0.651,0,1.386,0.523,1.834l4.415,3.786l-1.344,5.663
		c-0.117,0.491-0.011,1.024,0.288,1.418c0.309,0.405,0.789,0.661,1.29,0.693c0,0.032,0.053,0,0.085,0
		c0.32,0,0.629-0.085,0.896-0.256L32,25.585l4.97,3.029c0.587,0.363,1.344,0.331,1.898-0.075c0.555-0.395,0.821-1.12,0.661-1.781
		l-1.354-5.663l4.426-3.786C43.113,16.861,43.326,16.125,43.113,15.475z M36.287,19.901c-0.299,0.256-0.427,0.661-0.341,1.056
		l1.269,5.311l-4.661-2.848c-0.171-0.107-0.363-0.16-0.555-0.16s-0.395,0.053-0.565,0.16l-4.661,2.848l1.269-5.311
		c0.096-0.395-0.032-0.8-0.341-1.056l-4.149-3.562l5.439-0.437c0.405-0.032,0.747-0.277,0.907-0.651L32,10.206l2.101,5.045
		c0.149,0.373,0.501,0.619,0.896,0.651l5.45,0.437L36.287,19.901z"/>
	<path style="fill:#EF6825;" d="M44.222,59.894v1.973H19.778v-1.973c0-0.587,0.469-1.066,1.066-1.066h22.311
		C43.742,58.828,44.222,59.307,44.222,59.894z M36.287,19.901l4.159-3.562l-5.45-0.437c-0.395-0.032-0.747-0.277-0.896-0.651
		L32,10.206l-2.101,5.045c-0.16,0.373-0.501,0.619-0.907,0.651l-5.439,0.437l4.149,3.562c0.309,0.256,0.437,0.661,0.341,1.056
		l-1.269,5.311l4.661-2.848c0.171-0.107,0.373-0.16,0.565-0.16s0.384,0.053,0.555,0.16l4.661,2.848l-1.269-5.311
		C35.861,20.562,35.989,20.157,36.287,19.901z"/>
</g>
<g id="Layer_1">
</g>
</svg>
