<?xml version="1.0" encoding="iso-8859-1"?>
<!-- Generator: Adobe Illustrator 24.0.3, SVG Export Plug-In . SVG Version: 6.00 Build 0)  -->
<svg version="1.1" xmlns="http://www.w3.org/2000/svg" xmlns:xlink="http://www.w3.org/1999/xlink" x="0px" y="0px"
	 viewBox="0 0 64 64" style="enable-background:new 0 0 64 64;" xml:space="preserve">
<g id="achievement-badge-15">
	<path style="fill:#231F20;" d="M52.061,16.413L22.88,4.173V2.967C22.88,1.326,21.554,0,19.913,0c-1.641,0-2.977,1.326-2.977,2.967
		v55.627h-2.782c-1.539,0-2.782,1.252-2.782,2.782v1.697c0,0.51,0.417,0.927,0.927,0.927h15.226c0.51,0,0.927-0.417,0.927-0.927
		v-1.697c0-1.53-1.252-2.782-2.782-2.782H22.88V30.359l29.181-12.24c0.343-0.139,0.566-0.473,0.566-0.853
		C52.627,16.895,52.405,16.561,52.061,16.413z M18.791,2.967c0-0.612,0.501-1.113,1.122-1.113c0.612,0,1.113,0.501,1.113,1.113
		v55.627h-2.235V2.967z M25.671,60.449c0.51,0,0.927,0.417,0.927,0.927v0.77H13.227v-0.77c0-0.51,0.417-0.927,0.927-0.927H25.671z
		 M22.88,28.347V6.185l26.427,11.081L22.88,28.347z"/>
	<polygon style="fill:#EF6825;" points="49.307,17.266 22.88,28.347 22.88,6.185 	"/>
</g>
<g id="Layer_1">
</g>
</svg>
