<?xml version="1.0" encoding="iso-8859-1"?>
<!-- Generator: Adobe Illustrator 24.0.3, SVG Export Plug-In . SVG Version: 6.00 Build 0)  -->
<svg version="1.1" xmlns="http://www.w3.org/2000/svg" xmlns:xlink="http://www.w3.org/1999/xlink" x="0px" y="0px"
	 viewBox="0 0 64 64" style="enable-background:new 0 0 64 64;" xml:space="preserve">
<g id="achievement-badge-09">
	<path style="fill:#231F20;" d="M48.977,19.356c0.288-0.241,0.399-0.631,0.278-0.993c-0.111-0.353-0.427-0.603-0.808-0.641
		l-10.49-0.836c-0.464-0.037-0.873-0.334-1.058-0.77l-4.038-9.72c-0.149-0.343-0.483-0.576-0.863-0.576
		c-0.371,0-0.706,0.232-0.854,0.576l-4.048,9.72c-0.176,0.436-0.585,0.733-1.058,0.77l-10.49,0.836
		c-0.371,0.037-0.687,0.288-0.808,0.641c-0.111,0.362,0,0.752,0.278,0.993l7.993,6.851c0.362,0.306,0.52,0.78,0.408,1.235
		l-2.442,10.24c-0.093,0.371,0.056,0.752,0.353,0.965c0.167,0.121,0.353,0.186,0.548,0.186c0.167,0,0.334-0.046,0.483-0.139
		l8.986-5.487c0.399-0.251,0.901-0.251,1.3,0l8.986,5.487c0.325,0.195,0.733,0.176,1.03-0.046c0.306-0.214,0.446-0.594,0.362-0.965
		l-2.442-10.24c-0.111-0.455,0.046-0.928,0.399-1.235L48.977,19.356z M38.774,27.878l1.931,8.067l-7.083-4.326
		c-0.501-0.306-1.058-0.455-1.625-0.455c-0.557,0-1.123,0.149-1.625,0.455l-7.074,4.326l1.922-8.067
		c0.278-1.142-0.111-2.321-0.993-3.082l-6.303-5.403l8.262-0.659c1.17-0.093,2.182-0.826,2.627-1.903l3.184-7.659l3.194,7.659
		c0.446,1.077,1.448,1.81,2.618,1.903l8.272,0.668l-6.303,5.394C38.886,25.557,38.505,26.736,38.774,27.878z M48.977,19.356
		c0.288-0.241,0.399-0.631,0.278-0.993c-0.111-0.353-0.427-0.603-0.808-0.641l-10.49-0.836c-0.464-0.037-0.873-0.334-1.058-0.77
		l-4.038-9.72c-0.149-0.343-0.483-0.576-0.863-0.576c-0.371,0-0.706,0.232-0.854,0.576l-4.048,9.72
		c-0.176,0.436-0.585,0.733-1.058,0.77l-10.49,0.836c-0.371,0.037-0.687,0.288-0.808,0.641c-0.111,0.362,0,0.752,0.278,0.993
		l7.993,6.851c0.362,0.306,0.52,0.78,0.408,1.235l-2.442,10.24c-0.093,0.371,0.056,0.752,0.353,0.965
		c0.167,0.121,0.353,0.186,0.548,0.186c0.167,0,0.334-0.046,0.483-0.139l8.986-5.487c0.399-0.251,0.901-0.251,1.3,0l8.986,5.487
		c0.325,0.195,0.733,0.176,1.03-0.046c0.306-0.214,0.446-0.594,0.362-0.965l-2.442-10.24c-0.111-0.455,0.046-0.928,0.399-1.235
		L48.977,19.356z M38.774,27.878l1.931,8.067l-7.083-4.326c-0.501-0.306-1.058-0.455-1.625-0.455c-0.557,0-1.123,0.149-1.625,0.455
		l-7.074,4.326l1.922-8.067c0.278-1.142-0.111-2.321-0.993-3.082l-6.303-5.403l8.262-0.659c1.17-0.093,2.182-0.826,2.627-1.903
		l3.184-7.659l3.194,7.659c0.446,1.077,1.448,1.81,2.618,1.903l8.272,0.668l-6.303,5.394C38.886,25.557,38.505,26.736,38.774,27.878
		z M48.977,19.356c0.288-0.241,0.399-0.631,0.278-0.993c-0.111-0.353-0.427-0.603-0.808-0.641l-10.49-0.836
		c-0.464-0.037-0.873-0.334-1.058-0.77l-4.038-9.72c-0.149-0.343-0.483-0.576-0.863-0.576c-0.371,0-0.706,0.232-0.854,0.576
		l-4.048,9.72c-0.176,0.436-0.585,0.733-1.058,0.77l-10.49,0.836c-0.371,0.037-0.687,0.288-0.808,0.641
		c-0.111,0.362,0,0.752,0.278,0.993l7.993,6.851c0.362,0.306,0.52,0.78,0.408,1.235l-2.442,10.24
		c-0.093,0.371,0.056,0.752,0.353,0.965c0.167,0.121,0.353,0.186,0.548,0.186c0.167,0,0.334-0.046,0.483-0.139l8.986-5.487
		c0.399-0.251,0.901-0.251,1.3,0l8.986,5.487c0.325,0.195,0.733,0.176,1.03-0.046c0.306-0.214,0.446-0.594,0.362-0.965l-2.442-10.24
		c-0.111-0.455,0.046-0.928,0.399-1.235L48.977,19.356z M38.774,27.878l1.931,8.067l-7.083-4.326
		c-0.501-0.306-1.058-0.455-1.625-0.455c-0.557,0-1.123,0.149-1.625,0.455l-7.074,4.326l1.922-8.067
		c0.278-1.142-0.111-2.321-0.993-3.082l-6.303-5.403l8.262-0.659c1.17-0.093,2.182-0.826,2.627-1.903l3.184-7.659l3.194,7.659
		c0.446,1.077,1.448,1.81,2.618,1.903l8.272,0.668l-6.303,5.394C38.886,25.557,38.505,26.736,38.774,27.878z M54.797,16.562
		c-0.538-1.662-2.07-2.878-3.815-3.008L40.204,12.69l-4.159-9.998C35.377,1.077,33.752,0,31.997,0c-1.745,0-3.37,1.077-4.038,2.692
		L23.8,12.69l-10.787,0.863c-1.745,0.139-3.277,1.346-3.815,3.008s-0.009,3.546,1.318,4.679l8.216,7.037l-2.506,10.527
		c-0.297,1.244-0.019,2.609,0.752,3.639c0.77,1.03,1.996,1.69,3.286,1.755h0.214c0.798,0,1.615-0.223,2.293-0.641l5.264-3.212
		v13.721h-4.985c-3.073,0-5.57,2.497-5.57,5.57V64h29.048v-4.363c0-3.073-2.506-5.57-5.57-5.57h-4.985V40.346l5.264,3.212
		c1.495,0.919,3.444,0.835,4.855-0.195c1.42-1.03,2.098-2.859,1.69-4.558l-2.516-10.527l8.216-7.028
		C54.816,20.117,55.345,18.233,54.797,16.562z M40.956,55.923c2.042,0,3.713,1.671,3.713,3.713v2.506H19.335v-2.506
		c0-2.042,1.671-3.713,3.713-3.713H40.956z M29.89,54.067V39.213l2.107-1.29l2.117,1.29v14.853H29.89z M52.272,19.839l-8.643,7.399
		c-0.269,0.232-0.381,0.585-0.297,0.919l2.637,11.084c0.241,0.975-0.149,2.033-0.975,2.627c-0.808,0.594-1.931,0.631-2.794,0.102
		l-9.72-5.932c-0.297-0.176-0.668-0.176-0.966,0l-9.72,5.941c-0.39,0.232-0.854,0.362-1.318,0.362h-0.121
		c-0.743-0.037-1.448-0.408-1.894-1.003c-0.446-0.603-0.603-1.383-0.436-2.107l2.646-11.075c0.084-0.334-0.037-0.687-0.297-0.919
		l-8.652-7.408c-0.761-0.65-1.068-1.736-0.752-2.692c0.306-0.956,1.188-1.652,2.191-1.736l11.354-0.91
		c0.343-0.028,0.65-0.251,0.78-0.566l4.373-10.518c0.39-0.928,1.328-1.55,2.33-1.55c1.012,0,1.949,0.622,2.33,1.55l4.382,10.518
		c0.13,0.316,0.427,0.538,0.78,0.566l11.344,0.91c1.003,0.084,1.885,0.78,2.2,1.736C53.349,18.093,53.043,19.18,52.272,19.839z
		 M48.448,17.722l-10.49-0.836c-0.464-0.037-0.873-0.334-1.058-0.77l-4.038-9.72c-0.149-0.343-0.483-0.576-0.863-0.576
		c-0.371,0-0.706,0.232-0.854,0.576l-4.048,9.72c-0.176,0.436-0.585,0.733-1.058,0.77l-10.49,0.836
		c-0.371,0.037-0.687,0.288-0.808,0.641c-0.111,0.362,0,0.752,0.278,0.993l7.993,6.851c0.362,0.306,0.52,0.78,0.408,1.235
		l-2.442,10.24c-0.093,0.371,0.056,0.752,0.353,0.965c0.167,0.121,0.353,0.186,0.548,0.186c0.167,0,0.334-0.046,0.483-0.139
		l8.986-5.487c0.399-0.251,0.901-0.251,1.3,0l8.986,5.487c0.325,0.195,0.733,0.176,1.03-0.046c0.306-0.214,0.446-0.594,0.362-0.965
		l-2.442-10.24c-0.111-0.455,0.046-0.928,0.399-1.235l7.993-6.851c0.288-0.241,0.399-0.631,0.278-0.993
		C49.144,18.01,48.828,17.759,48.448,17.722z M39.777,24.796c-0.891,0.761-1.272,1.94-1.003,3.082l1.931,8.067l-7.083-4.326
		c-0.501-0.306-1.058-0.455-1.625-0.455c-0.557,0-1.123,0.149-1.625,0.455l-7.074,4.326l1.922-8.067
		c0.278-1.142-0.111-2.321-0.993-3.082l-6.303-5.403l8.262-0.659c1.17-0.093,2.182-0.826,2.627-1.903l3.184-7.659l3.194,7.659
		c0.446,1.077,1.448,1.81,2.618,1.903l8.272,0.668L39.777,24.796z M48.977,19.356c0.288-0.241,0.399-0.631,0.278-0.993
		c-0.111-0.353-0.427-0.603-0.808-0.641l-10.49-0.836c-0.464-0.037-0.873-0.334-1.058-0.77l-4.038-9.72
		c-0.149-0.343-0.483-0.576-0.863-0.576c-0.371,0-0.706,0.232-0.854,0.576l-4.048,9.72c-0.176,0.436-0.585,0.733-1.058,0.77
		l-10.49,0.836c-0.371,0.037-0.687,0.288-0.808,0.641c-0.111,0.362,0,0.752,0.278,0.993l7.993,6.851
		c0.362,0.306,0.52,0.78,0.408,1.235l-2.442,10.24c-0.093,0.371,0.056,0.752,0.353,0.965c0.167,0.121,0.353,0.186,0.548,0.186
		c0.167,0,0.334-0.046,0.483-0.139l8.986-5.487c0.399-0.251,0.901-0.251,1.3,0l8.986,5.487c0.325,0.195,0.733,0.176,1.03-0.046
		c0.306-0.214,0.446-0.594,0.362-0.965l-2.442-10.24c-0.111-0.455,0.046-0.928,0.399-1.235L48.977,19.356z M38.774,27.878
		l1.931,8.067l-7.083-4.326c-0.501-0.306-1.058-0.455-1.625-0.455c-0.557,0-1.123,0.149-1.625,0.455l-7.074,4.326l1.922-8.067
		c0.278-1.142-0.111-2.321-0.993-3.082l-6.303-5.403l8.262-0.659c1.17-0.093,2.182-0.826,2.627-1.903l3.184-7.659l3.194,7.659
		c0.446,1.077,1.448,1.81,2.618,1.903l8.272,0.668l-6.303,5.394C38.886,25.557,38.505,26.736,38.774,27.878z"/>
	<path style="fill:#EF6825;" d="M44.669,59.637v2.506H19.335v-2.506c0-2.042,1.671-3.713,3.713-3.713h17.908
		C42.998,55.923,44.669,57.594,44.669,59.637z M52.272,19.839l-8.643,7.399c-0.269,0.232-0.381,0.585-0.297,0.919l2.637,11.084
		c0.241,0.975-0.149,2.033-0.975,2.627c-0.808,0.594-1.931,0.631-2.794,0.102l-9.72-5.932c-0.297-0.176-0.668-0.176-0.966,0
		l-9.72,5.941c-0.39,0.232-0.854,0.362-1.318,0.362h-0.121c-0.743-0.037-1.448-0.408-1.894-1.003
		c-0.446-0.603-0.603-1.383-0.436-2.107l2.646-11.075c0.084-0.334-0.037-0.687-0.297-0.919l-8.652-7.408
		c-0.761-0.65-1.068-1.736-0.752-2.692c0.306-0.956,1.188-1.652,2.191-1.736l11.354-0.91c0.343-0.028,0.65-0.251,0.78-0.566
		l4.373-10.518c0.39-0.928,1.328-1.55,2.33-1.55c1.012,0,1.949,0.622,2.33,1.55l4.382,10.518c0.13,0.316,0.427,0.538,0.78,0.566
		l11.344,0.91c1.003,0.084,1.885,0.78,2.2,1.736C53.349,18.093,53.043,19.18,52.272,19.839z M49.255,18.363
		c-0.111-0.353-0.427-0.603-0.808-0.641l-10.49-0.836c-0.464-0.037-0.873-0.334-1.058-0.77l-4.038-9.72
		c-0.149-0.343-0.483-0.576-0.863-0.576c-0.371,0-0.706,0.232-0.854,0.576l-4.048,9.72c-0.176,0.436-0.585,0.733-1.058,0.77
		l-10.49,0.836c-0.371,0.037-0.687,0.288-0.808,0.641c-0.111,0.362,0,0.752,0.278,0.993l7.993,6.851
		c0.362,0.306,0.52,0.78,0.408,1.235l-2.442,10.24c-0.093,0.371,0.056,0.752,0.353,0.965c0.167,0.121,0.353,0.186,0.548,0.186
		c0.167,0,0.334-0.046,0.483-0.139l8.986-5.487c0.399-0.251,0.901-0.251,1.3,0l8.986,5.487c0.325,0.195,0.733,0.176,1.03-0.046
		c0.306-0.214,0.446-0.594,0.362-0.965l-2.442-10.24c-0.111-0.455,0.046-0.928,0.399-1.235l7.993-6.851
		C49.264,19.115,49.376,18.725,49.255,18.363z"/>
</g>
<g id="Layer_1">
</g>
</svg>
