<?xml version="1.0" encoding="iso-8859-1"?>
<!-- Generator: Adobe Illustrator 24.0.3, SVG Export Plug-In . SVG Version: 6.00 Build 0)  -->
<svg version="1.1" xmlns="http://www.w3.org/2000/svg" xmlns:xlink="http://www.w3.org/1999/xlink" x="0px" y="0px"
	 viewBox="0 0 64 64" style="enable-background:new 0 0 64 64;" xml:space="preserve">
<g id="achievement-badge-18">
	<path style="fill:#231F20;" d="M55.077,16.724c-0.103-0.339-0.404-0.583-0.752-0.64L39.482,13.93L32.851,0.48
		c-0.32-0.64-1.373-0.64-1.693,0l-6.631,13.45L9.684,16.084c-0.357,0.056-0.649,0.301-0.762,0.64
		c-0.113,0.339-0.019,0.715,0.235,0.969l10.742,10.459l-2.53,14.786c-0.066,0.348,0.085,0.705,0.367,0.912
		c0.292,0.216,0.677,0.245,0.997,0.075l1.505-0.79v19.922c0,0.348,0.188,0.668,0.498,0.828c0.31,0.169,0.687,0.151,0.969-0.047
		l10.299-6.989l10.29,6.989c0.16,0.103,0.348,0.16,0.536,0.16c0.15,0,0.301-0.038,0.433-0.113c0.31-0.16,0.508-0.48,0.508-0.828
		V43.135l1.505,0.79c0.141,0.075,0.292,0.113,0.442,0.113c0.188,0,0.386-0.066,0.546-0.188c0.292-0.207,0.442-0.564,0.376-0.912
		l-2.53-14.786l10.732-10.459C55.096,17.439,55.19,17.062,55.077,16.724z M32.475,3.979l5.54,11.221
		c0.141,0.282,0.405,0.47,0.705,0.517l12.378,1.797l-18.624,6.001V3.979z M25.279,15.717c0.31-0.047,0.574-0.235,0.715-0.517
		l5.54-11.221v19.536l-18.624-6.001L25.279,15.717z M19.721,40.314l2.116-12.331c0.056-0.301-0.047-0.611-0.273-0.828l-8.973-8.757
		l18.652,6.01L19.721,40.314z M25.477,59.003l-3.358,2.276V42.148l3.358-1.768V59.003z M36.999,57.969l-4.468-3.038
		c-0.32-0.216-0.734-0.216-1.053,0l-4.12,2.794V39.392l4.647-2.446l4.995,2.634V57.969z M41.89,61.279l-3.01-2.032v-18.68l3.01,1.58
		V61.279z M32.437,35.056c-0.132-0.075-0.282-0.113-0.433-0.113c-0.151,0-0.301,0.038-0.442,0.113l-11.09,5.832l11.532-15.924
		l11.532,15.924L32.437,35.056z M42.436,27.155c-0.216,0.216-0.32,0.527-0.263,0.828l2.107,12.331L32.767,24.408l18.652-6.01
		L42.436,27.155z"/>
	<path style="fill:#EF6825;" d="M31.534,3.979v19.536l-18.624-6.001l12.369-1.797c0.31-0.047,0.574-0.235,0.715-0.517L31.534,3.979z
		 M42.436,27.155l8.983-8.757l-18.652,6.01l11.513,15.905l-2.107-12.331C42.116,27.682,42.22,27.371,42.436,27.155z M32.005,24.963
		L20.473,40.887l11.09-5.832c0.141-0.075,0.292-0.113,0.442-0.113c0.15,0,0.301,0.038,0.433,0.113l11.099,5.832L32.005,24.963z
		 M38.721,15.717c-0.301-0.047-0.564-0.235-0.705-0.517l-5.54-11.221v19.536l18.624-6.001L38.721,15.717z M19.721,40.314
		l11.522-15.905l-18.652-6.01l8.973,8.757c0.226,0.216,0.329,0.527,0.273,0.828L19.721,40.314z"/>
</g>
<g id="Layer_1">
</g>
</svg>
